<svg xmlns="http://www.w3.org/2000/svg" xmlns:xlink="http://www.w3.org/1999/xlink" width="100" height="100" viewBox="0 0 100 100">
  <defs>
    <clipPath id="clip-מידע_מקצועי">
      <rect width="100" height="100"/>
    </clipPath>
  </defs>
  <g id="מידע_מקצועי" data-name="מידע מקצועי" clip-path="url(#clip-מידע_מקצועי)">
    <g id="Group_20140" data-name="Group 20140" transform="translate(-3348.68 -2548.897)">
      <path id="Path_43503" data-name="Path 43503" d="M3365.125,2548.9h-2.8a5.646,5.646,0,0,0-5.646,5.646v73.394a5.646,5.646,0,0,0,5.646,5.646h21.941a8.352,8.352,0,0,1,1.322-1.8c1.022-1.029,3.875-3.867,3.875-3.867l37.787-37.788v-35.586a5.646,5.646,0,0,0-5.646-5.646h-3.065m-23.751,46.228h-19.76a3.528,3.528,0,1,1,0-7.057h19.76a3.528,3.528,0,0,1,0,7.057Zm14.114-14.114H3375.03a3.528,3.528,0,1,1,0-7.057H3408.9a3.528,3.528,0,1,1,0,7.057Z" transform="translate(0)" fill="#0068f5"/>
      <path id="Path_43504" data-name="Path 43504" d="M3531.45,2664.812l-9.018-9.017a1.57,1.57,0,0,0-2.223,0l-4.737,4.737a1.572,1.572,0,0,0,0,2.223l9.018,9.018a1.571,1.571,0,0,0,2.223,0l4.737-4.737A1.572,1.572,0,0,0,3531.45,2664.812Z" transform="translate(-91.588 -61.569)" fill="#0068f5"/>
      <path id="Path_43505" data-name="Path 43505" d="M3432.614,2746.049a1.564,1.564,0,0,0-2.214-.008c-1.026,1.021-2.494,2.486-3.192,3.188a1.531,1.531,0,0,0-.441.976l-.783,10.175a1.572,1.572,0,0,0,1.747,1.682l9.776-1.125a1.569,1.569,0,0,0,.931-.45l3.2-3.195a1.572,1.572,0,0,0,0-2.223Z" transform="translate(-40.086 -113.776)" fill="#0068f5"/>
      <path id="Path_43506" data-name="Path 43506" d="M3482.054,2685.848l-9.018-9.018a1.572,1.572,0,0,0-2.223,0l-25.26,25.26a1.571,1.571,0,0,0,0,2.223l9.017,9.017a1.572,1.572,0,0,0,2.223,0l25.26-25.26A1.573,1.573,0,0,0,3482.054,2685.848Z" transform="translate(-51.143 -73.738)" fill="#0068f5"/>
    </g>
  </g>
</svg>
